<svg width="40" height="50" viewBox="0 0 40 50" fill="none" xmlns="http://www.w3.org/2000/svg">
  <!-- 그라디언트 정의 -->
  <defs>
    <linearGradient id="etcGradient" x1="0%" y1="0%" x2="100%" y2="100%">
      <stop offset="0%" style="stop-color:#6E62F6;stop-opacity:0.8" />
      <stop offset="100%" style="stop-color:#8B77FF;stop-opacity:0.8" />
    </linearGradient>
    <filter id="etcShadow" x="-50%" y="-50%" width="200%" height="200%">
      <feDropShadow dx="0" dy="2" flood-color="#6E62F6" flood-opacity="0.2" stdDeviation="2"/>
    </filter>
  </defs>
  
  <!-- 마커 배경 (브랜드 그라디언트, 약간 투명) -->
  <path d="M20 2C11.163 2 4 9.163 4 18C4 30 20 46 20 46S36 30 36 18C36 9.163 28.837 2 20 2Z" 
        fill="url(#etcGradient)" stroke="#5A4EE8" stroke-width="1.5" filter="url(#etcShadow)"/>
  
  <!-- 기타 아이콘 (현대적인 상점) -->
  <g transform="translate(20, 18)">
    <!-- 상점 건물 본체 -->
    <rect x="-6" y="-2" width="12" height="8" rx="1" stroke="white" stroke-width="2" fill="white" fill-opacity="0.2"/>
    <!-- 지붕 (더 현대적인 스타일) -->
    <path d="M-7 -2 L0 -6 L7 -2" stroke="white" stroke-width="2" fill="white" fill-opacity="0.3" stroke-linejoin="round"/>
    <!-- 문과 창문 -->
    <rect x="-2" y="2" width="4" height="4" rx="0.5" fill="white" fill-opacity="0.9"/>
    <rect x="-5" y="-1" width="2" height="2" fill="white" fill-opacity="0.7"/>
    <rect x="3" y="-1" width="2" height="2" fill="white" fill-opacity="0.7"/>
  </g>
  
  <!-- 부드러운 그림자 -->
  <ellipse cx="20" cy="47" rx="6" ry="2" fill="#6E62F6" fill-opacity="0.12"/>
</svg> 