<svg width="40" height="50" viewBox="0 0 40 50" fill="none" xmlns="http://www.w3.org/2000/svg">
  <!-- 그라디언트 정의 -->
  <defs>
    <linearGradient id="officeGradient" x1="0%" y1="0%" x2="100%" y2="100%">
      <stop offset="0%" style="stop-color:#6E62F6;stop-opacity:1" />
      <stop offset="100%" style="stop-color:#8B77FF;stop-opacity:1" />
    </linearGradient>
    <filter id="officeShadow" x="-50%" y="-50%" width="200%" height="200%">
      <feDropShadow dx="0" dy="2" flood-color="#6E62F6" flood-opacity="0.3" stdDeviation="2"/>
    </filter>
  </defs>
  
  <!-- 마커 배경 (브랜드 그라디언트) -->
  <path d="M20 2C11.163 2 4 9.163 4 18C4 30 20 46 20 46S36 30 36 18C36 9.163 28.837 2 20 2Z" 
        fill="url(#officeGradient)" stroke="#5A4EE8" stroke-width="1.5" filter="url(#officeShadow)"/>
  
  <!-- 사무실 아이콘 (현대적인 빌딩) -->
  <g transform="translate(20, 18)">
    <!-- 빌딩 본체 -->
    <rect x="-6" y="-6" width="12" height="12" rx="1" stroke="white" stroke-width="1.5" fill="white" fill-opacity="0.2"/>
    <!-- 창문들 -->
    <rect x="-4" y="-4" width="2" height="2" fill="white" fill-opacity="0.8"/>
    <rect x="-1" y="-4" width="2" height="2" fill="white" fill-opacity="0.8"/>
    <rect x="2" y="-4" width="2" height="2" fill="white" fill-opacity="0.8"/>
    <rect x="-4" y="-1" width="2" height="2" fill="white" fill-opacity="0.8"/>
    <rect x="-1" y="-1" width="2" height="2" fill="white" fill-opacity="0.8"/>
    <rect x="2" y="-1" width="2" height="2" fill="white" fill-opacity="0.8"/>
    <!-- 입구 -->
    <rect x="-1" y="2" width="2" height="4" fill="white" fill-opacity="0.9"/>
  </g>
  
  <!-- 부드러운 그림자 -->
  <ellipse cx="20" cy="47" rx="6" ry="2" fill="#6E62F6" fill-opacity="0.15"/>
</svg> 