<svg width="40" height="50" viewBox="0 0 40 50" fill="none" xmlns="http://www.w3.org/2000/svg">
  <!-- 마커 배경 (초록색) -->
  <path d="M20 2C11.163 2 4 9.163 4 18C4 30 20 46 20 46S36 30 36 18C36 9.163 28.837 2 20 2Z" fill="#10b981" stroke="#059669" stroke-width="2"/>
  
  <!-- 사무실 아이콘 (서류가방) -->
  <g transform="translate(20, 18)" stroke="white" stroke-width="2" fill="none">
    <!-- 서류가방 본체 -->
    <rect x="-7" y="-2" width="14" height="8" rx="1"/>
    <!-- 서류가방 손잡이 -->
    <path d="M-3 -2 L-3 -4 C-3 -5 -2 -6 -1 -6 L1 -6 C2 -6 3 -5 3 -4 L3 -2"/>
    <!-- 잠금장치 -->
    <circle cx="0" cy="2" r="1.5" fill="white"/>
  </g>
  
  <!-- 그림자 -->
  <ellipse cx="20" cy="47" rx="8" ry="3" fill="black" fill-opacity="0.2"/>
</svg> 