<svg width="40" height="50" viewBox="0 0 40 50" fill="none" xmlns="http://www.w3.org/2000/svg">
  <!-- 그라디언트 정의 -->
  <defs>
    <linearGradient id="brandGradient" x1="0%" y1="0%" x2="100%" y2="100%">
      <stop offset="0%" style="stop-color:#6E62F6;stop-opacity:1" />
      <stop offset="100%" style="stop-color:#8B77FF;stop-opacity:1" />
    </linearGradient>
    <filter id="shadow" x="-50%" y="-50%" width="200%" height="200%">
      <feDropShadow dx="0" dy="2" flood-color="#6E62F6" flood-opacity="0.3" stdDeviation="2"/>
    </filter>
  </defs>
  
  <!-- 마커 배경 (브랜드 그라디언트) -->
  <path d="M20 2C11.163 2 4 9.163 4 18C4 30 20 46 20 46S36 30 36 18C36 9.163 28.837 2 20 2Z" 
        fill="url(#brandGradient)" stroke="#5A4EE8" stroke-width="1.5" filter="url(#shadow)"/>
  
  <!-- 음식점 아이콘 (현대적인 디자인) -->
  <g transform="translate(20, 18)">
    <!-- 포크 -->
    <path d="M-6 -8 L-6 8 M-8 -8 L-8 -4 M-4 -8 L-4 -4" stroke="white" stroke-width="2" stroke-linecap="round" fill="none"/>
    <!-- 나이프 -->
    <path d="M6 -8 L6 8 M4 -6 L6 -8" stroke="white" stroke-width="2" stroke-linecap="round" fill="none"/>
    <!-- 접시 -->
    <ellipse cx="0" cy="6" rx="8" ry="2" fill="white" fill-opacity="0.3"/>
  </g>
  
  <!-- 부드러운 그림자 -->
  <ellipse cx="20" cy="47" rx="6" ry="2" fill="#6E62F6" fill-opacity="0.15"/>
</svg> 